<svg width="157" height="157" viewBox="0 0 157 157" fill="none" xmlns="http://www.w3.org/2000/svg">
<rect width="156.25" height="156.25" rx="25" fill="#1E1AFF"/>
<path d="M74 32V44H82V32H74ZM46.8906 43.2344L41.2344 48.8906L49.7188 57.375L55.375 51.7188L46.8906 43.2344ZM109.109 43.2344L100.625 51.7188L106.281 57.375L114.766 48.8906L109.109 43.2344ZM78 52C62.56 52 50 64.56 50 80C50 91.14 56.556 100.754 66 105.258V116C66 120.412 69.588 124 74 124H82C86.412 124 90 120.412 90 116V105.258C99.444 100.754 106 91.14 106 80C106 64.56 93.44 52 78 52ZM30 76V84H42V76H30ZM114 76V84H126V76H114ZM49.7188 102.625L41.2344 111.109L46.8906 116.766L55.375 108.281L49.7188 102.625ZM106.281 102.625L100.625 108.281L109.109 116.766L114.766 111.109L106.281 102.625Z" fill="#FFE713"/>
</svg>
